<?xml version="1.0" standalone="no"?>
<!DOCTYPE svg PUBLIC "-//W3C//DTD SVG 20010904//EN"
 "http://www.w3.org/TR/2001/REC-SVG-20010904/DTD/svg10.dtd">
<svg version="1.0" xmlns="http://www.w3.org/2000/svg"
 width="512.000000pt" height="512.000000pt" viewBox="0 0 512.000000 512.000000"
 preserveAspectRatio="xMidYMid meet">
<metadata>
Created by potrace 1.11, written by Peter Selinger 2001-2013
</metadata>
<g transform="translate(0.000000,512.000000) scale(0.100000,-0.100000)"
fill="#000000" stroke="none">
<path d="M1610 4959 c-644 -13 -931 -25 -972 -42 -49 -21 -86 -73 -98 -138 -5
-30 -21 -168 -36 -307 -23 -216 -25 -256 -13 -267 11 -10 89 -16 329 -24 173
-6 349 -13 390 -16 199 -12 1930 -17 2375 -6 737 17 1027 30 1044 46 12 11 10
51 -13 267 -35 323 -40 353 -72 396 -44 57 -70 63 -353 73 -793 27 -1753 34
-2581 18z m2810 -117 c0 -5 -16 -8 -35 -7 -35 2 -41 -3 -27 -21 4 -5 0 -2 -9
8 -19 19 -30 14 -22 -10 4 -14 3 -15 -5 -2 -6 8 -8 18 -6 22 3 4 -5 4 -18 -1
-13 -4 -29 -6 -35 -4 -7 3 -13 0 -13 -6 0 -5 11 -8 24 -5 14 2 27 1 30 -4 2
-4 -25 -7 -60 -7 -36 1 -68 -3 -70 -7 -3 -5 -10 -6 -15 -2 -5 3 -7 10 -4 15 4
5 2 9 -3 9 -6 0 -12 -7 -16 -15 -3 -8 -12 -12 -21 -9 -8 3 -13 9 -10 13 2 4
-2 8 -10 8 -8 0 -12 -4 -9 -9 7 -10 13 -10 -143 -12 -72 -1 -129 2 -127 6 3 5
-7 8 -21 8 -14 0 -24 -3 -22 -7 3 -5 -32 -8 -76 -9 -74 0 -221 -11 -272 -19
-11 -2 -28 -4 -37 -4 -12 -1 -18 -9 -18 -26 0 -22 -4 -25 -35 -25 -29 0 -35 4
-35 20 0 25 -22 35 -47 21 -13 -6 -24 -6 -34 1 -11 8 -11 9 3 4 10 -3 20 -1
22 3 7 11 -55 12 -730 14 -517 2 -562 1 -578 -15 -14 -15 -46 -15 -46 -1 0 3
7 3 15 0 8 -4 17 -3 19 2 4 6 -49 8 -86 2 -5 -1 -8 -12 -8 -25 0 -24 -3 -25
-65 -25 -64 0 -65 1 -66 27 l-2 27 -4 -27 c-4 -23 -9 -28 -33 -28 -23 0 -30 5
-35 30 -4 18 -13 30 -23 31 -34 2 -78 7 -122 14 -62 9 -213 13 -225 7 -20 -12
-107 -7 -113 6 -4 11 -6 11 -13 0 -7 -10 -9 -10 -9 2 0 13 -1 13 -10 0 -8 -12
-10 -12 -11 5 l0 20 -9 -20 c-6 -14 -9 -15 -10 -5 0 12 -3 11 -11 -3 -6 -10
-15 -14 -22 -10 -17 11 -50 11 -65 -1 -7 -5 -12 -5 -11 0 4 23 -3 32 -26 32
-16 0 -25 -6 -26 -17 -1 -13 -2 -13 -6 2 -2 9 -8 17 -11 18 -33 5 -61 5 -56 0
3 -3 15 -6 26 -6 12 0 23 -7 25 -15 3 -9 1 -11 -4 -5 -12 15 -33 17 -33 3 0
-7 -6 -3 -14 8 -12 17 -25 20 -75 19 -34 -1 -67 2 -73 7 -7 4 827 8 1855 8
1027 0 1867 -4 1867 -8z m-1534 -80 c-3 -2 -28 -5 -56 -5 -28 0 -53 3 -56 5
-3 3 22 6 56 6 34 0 59 -3 56 -6z m-1267 -112 l0 -70 -29 0 -29 0 0 70 0 70
29 0 29 0 0 -70z m281 35 c0 -32 -3 -35 -29 -35 -22 0 -30 5 -33 23 -7 35 1
47 33 47 27 0 29 -3 29 -35z m124 26 c3 -5 3 -36 0 -70 -7 -59 -8 -61 -35 -61
-28 0 -28 0 -28 70 l0 70 29 0 c16 0 31 -4 34 -9z m336 -26 c0 -32 -2 -35 -30
-35 -28 0 -30 3 -30 35 0 32 2 35 30 35 28 0 30 -3 30 -35z m70 0 c0 -32 -2
-35 -30 -35 -28 0 -30 3 -30 35 0 32 2 35 30 35 28 0 30 -3 30 -35z m260 0 l0
-34 -62 2 c-52 2 -63 5 -66 20 -7 37 5 45 67 45 l61 0 0 -33z m218 -2 l3 -32
-70 0 -71 0 0 35 0 34 68 -3 67 -2 3 -32z m191 -33 l0 -70 -30 0 c-21 0 -29 5
-30 18 0 9 -2 37 -5 60 -5 54 0 62 36 62 l29 0 0 -70z m406 35 l0 -30 -67 -2
-68 -3 0 29 c0 15 3 30 6 34 3 3 34 5 68 4 61 -2 61 -2 61 -32z m-1415 -70 c0
-32 -2 -35 -30 -35 -26 0 -30 4 -30 28 0 35 6 42 37 42 20 0 23 -5 23 -35z
m75 0 c0 -27 -3 -30 -30 -30 -21 0 -31 5 -33 18 -6 33 6 49 35 45 24 -3 28 -8
28 -33z m123 -2 c3 -31 1 -33 -27 -33 -29 0 -31 3 -31 36 0 33 2 35 28 32 22
-2 28 -8 30 -35z m477 2 c0 -27 -4 -30 -32 -33 -32 -3 -33 -2 -33 33 0 35 1
36 33 33 28 -3 32 -6 32 -33z m210 0 c0 -27 -4 -30 -32 -33 -30 -3 -33 -1 -33
26 0 36 8 44 40 40 20 -2 25 -8 25 -33z m193 -2 c3 -31 1 -33 -27 -33 -29 0
-31 3 -31 36 0 33 2 35 28 32 22 -2 28 -8 30 -35z m72 2 c0 -32 -2 -35 -30
-35 -28 0 -30 3 -30 35 0 32 2 35 30 35 28 0 30 -3 30 -35z m125 0 c0 -27 -3
-30 -30 -30 -21 0 -31 5 -33 18 -6 33 6 49 35 45 24 -3 28 -8 28 -33z m205 -1
c0 -33 -2 -35 -27 -32 -47 5 -45 68 2 68 22 0 25 -4 25 -36z m-1740 -70 c0
-20 -5 -24 -30 -24 -25 0 -30 4 -30 24 0 18 6 26 23 28 31 5 37 1 37 -28z
m858 4 c3 -24 0 -28 -22 -28 -19 0 -26 5 -26 20 0 11 -4 20 -10 20 -5 0 -10
-9 -10 -20 0 -31 -46 -27 -52 4 -6 27 3 31 77 31 36 0 40 -3 43 -27z m-998 -3
c0 -21 -5 -25 -30 -25 -25 0 -30 4 -30 25 0 21 5 25 30 25 25 0 30 -4 30 -25z
m70 0 c0 -21 -5 -25 -30 -25 -25 0 -30 4 -30 25 0 21 5 25 30 25 25 0 30 -4
30 -25z m260 0 c0 -21 -5 -25 -29 -25 -24 0 -28 4 -28 25 0 21 4 25 28 25 24
0 29 -4 29 -25z m270 0 c0 -21 -5 -25 -30 -25 -25 0 -30 4 -30 25 0 21 5 25
30 25 25 0 30 -4 30 -25z m472 0 c-3 -19 -10 -25 -32 -25 -23 0 -27 4 -27 25
0 22 4 25 32 25 29 0 32 -2 27 -25z m208 0 c0 -20 -5 -25 -24 -25 -17 0 -25 7
-28 25 -5 22 -2 25 23 25 24 0 29 -4 29 -25z m130 0 c0 -21 -5 -25 -30 -25
-25 0 -30 4 -30 25 0 21 5 25 30 25 25 0 30 -4 30 -25z m260 0 c0 -20 -5 -25
-25 -25 -20 0 -25 5 -25 25 0 20 5 25 25 25 20 0 25 -5 25 -25z m210 0 c0 -20
-5 -25 -25 -25 -20 0 -25 5 -25 25 0 20 5 25 25 25 20 0 25 -5 25 -25z m-1670
-68 c0 -31 -5 -35 -35 -29 -18 3 -25 11 -25 28 0 20 5 24 30 24 25 0 30 -4 30
-23z m120 -2 c0 -21 -5 -25 -30 -25 -25 0 -30 4 -30 25 0 21 5 25 30 25 25 0
30 -4 30 -25z m270 0 c0 -21 -5 -25 -30 -25 -25 0 -30 4 -30 25 0 21 5 25 30
25 25 0 30 -4 30 -25z m260 0 c0 -20 -5 -25 -25 -25 -20 0 -25 5 -25 25 0 20
5 25 25 25 20 0 25 -5 25 -25z m208 -2 c-2 -22 -8 -28 -28 -28 -20 0 -26 6
-28 28 -3 24 0 27 28 27 28 0 31 -3 28 -27z m72 -3 c0 -25 -4 -30 -25 -30 -21
0 -25 5 -25 30 0 25 4 30 25 30 21 0 25 -5 25 -30z m70 0 c0 -25 -4 -30 -25
-30 -21 0 -25 5 -25 30 0 25 4 30 25 30 21 0 25 -5 25 -30z m70 0 c0 -25 -4
-30 -25 -30 -21 0 -25 5 -25 30 0 25 4 30 25 30 21 0 25 -5 25 -30z m128 3
c-2 -22 -8 -28 -28 -28 -20 0 -26 6 -28 28 -3 24 0 27 28 27 28 0 31 -3 28
-27z m262 2 c0 -20 -5 -25 -25 -25 -20 0 -25 5 -25 25 0 20 5 25 25 25 20 0
25 -5 25 -25z m210 0 c0 -20 -5 -25 -25 -25 -20 0 -25 5 -25 25 0 20 5 25 25
25 20 0 25 -5 25 -25z m-1954 -60 c11 -27 -3 -43 -30 -38 -19 4 -26 11 -26 29
0 19 5 24 25 24 14 0 28 -7 31 -15z m282 -12 c-2 -22 -8 -28 -28 -28 -20 0
-26 6 -28 28 -3 24 0 27 28 27 28 0 31 -3 28 -27z m122 -3 c0 -25 -4 -30 -25
-30 -27 0 -41 20 -31 45 3 8 17 15 31 15 21 0 25 -5 25 -30z m270 6 c0 -17 -7
-25 -25 -28 -30 -6 -35 -2 -35 29 0 19 5 23 30 23 25 0 30 -4 30 -24z m260 -6
c0 -25 -4 -30 -25 -30 -21 0 -25 5 -25 30 0 25 4 30 25 30 21 0 25 -5 25 -30z
m210 0 c0 -25 -4 -30 -25 -30 -14 0 -28 7 -31 15 -10 25 4 45 31 45 21 0 25
-5 25 -30z m338 3 c-2 -22 -8 -28 -28 -28 -20 0 -26 6 -28 28 -3 24 0 27 28
27 28 0 31 -3 28 -27z m262 -3 c0 -25 -4 -30 -25 -30 -21 0 -25 5 -25 30 0 25
4 30 25 30 21 0 25 -5 25 -30z m208 3 c-2 -20 -9 -28 -23 -28 -14 0 -21 8 -23
28 -3 23 0 27 23 27 23 0 26 -4 23 -27z m-1878 -68 c0 -21 -5 -25 -30 -25 -25
0 -30 4 -30 25 0 21 5 25 30 25 25 0 30 -4 30 -25z m70 0 c0 -21 -5 -25 -30
-25 -25 0 -30 4 -30 25 0 21 5 25 30 25 25 0 30 -4 30 -25z m70 0 c0 -21 -5
-25 -30 -25 -25 0 -30 4 -30 25 0 21 5 25 30 25 25 0 30 -4 30 -25z m260 0 c0
-20 -5 -25 -25 -25 -20 0 -25 5 -25 25 0 20 5 25 25 25 20 0 25 -5 25 -25z
m70 0 c0 -20 -5 -25 -25 -25 -20 0 -25 5 -25 25 0 20 5 25 25 25 20 0 25 -5
25 -25z m130 0 c0 -21 -5 -25 -30 -25 -25 0 -30 4 -30 25 0 21 5 25 30 25 25
0 30 -4 30 -25z m330 0 c0 -20 -5 -25 -25 -25 -20 0 -25 5 -25 25 0 20 5 25
25 25 20 0 25 -5 25 -25z m70 0 c0 -20 -5 -25 -25 -25 -20 0 -25 5 -25 25 0
20 5 25 25 25 20 0 25 -5 25 -25z m140 0 c0 -21 -5 -25 -28 -25 -24 0 -28 4
-26 23 1 12 3 23 3 25 1 1 12 2 26 2 20 0 25 -5 25 -25z m70 0 c0 -20 -5 -25
-25 -25 -20 0 -25 5 -25 25 0 20 5 25 25 25 20 0 25 -5 25 -25z m270 0 c0 -21
-5 -25 -30 -25 -25 0 -30 4 -30 25 0 21 5 25 30 25 25 0 30 -4 30 -25z m70 0
c0 -21 -5 -25 -30 -25 -25 0 -30 4 -30 25 0 21 5 25 30 25 25 0 30 -4 30 -25z
m190 0 c0 -20 -5 -25 -25 -25 -20 0 -25 5 -25 25 0 20 5 25 25 25 20 0 25 -5
25 -25z m70 0 c0 -20 -5 -25 -25 -25 -20 0 -25 5 -25 25 0 20 5 25 25 25 20 0
25 -5 25 -25z"/>
<path d="M1046 4817 c3 -10 9 -15 12 -12 3 3 0 11 -7 18 -10 9 -11 8 -5 -6z"/>
<path d="M4166 4813 c-6 -14 -5 -15 5 -6 7 7 10 15 7 18 -3 3 -9 -2 -12 -12z"/>
<path d="M4026 4808 c3 -5 10 -6 15 -3 13 9 11 12 -6 12 -8 0 -12 -4 -9 -9z"/>
<path d="M0 2956 l0 -1193 117 -11 c139 -14 226 -37 331 -89 71 -35 96 -57
337 -301 143 -145 260 -269 260 -276 0 -7 -23 -12 -58 -14 -51 -3 -58 -5 -52
-20 13 -33 25 -158 24 -243 -1 -47 1 -91 5 -97 5 -8 -3 -12 -24 -12 -60 0 -25
-25 51 -36 523 -81 1782 -107 2569 -54 149 10 465 38 497 44 10 2 46 7 81 11
67 8 85 25 26 25 -33 0 -36 2 -29 23 4 12 9 85 10 162 1 77 7 152 13 168 11
27 11 27 -28 27 -21 0 -42 5 -45 10 -8 13 446 478 524 538 96 72 250 122 429
137 l82 7 0 1193 0 1194 -28 -4 c-307 -39 -4757 -39 -5064 0 l-28 4 0 -1193z
m840 765 c0 -327 -4 -386 -24 -374 -6 4 -4 -2 4 -12 12 -15 12 -17 1 -10 -11
6 -13 4 -8 -8 3 -8 -1 -21 -9 -28 -8 -6 -12 -14 -10 -17 3 -2 -3 -16 -14 -30
-11 -13 -17 -29 -13 -35 3 -6 1 -7 -5 -3 -12 7 -5 37 12 48 7 5 7 8 -2 8 -15
0 -31 -39 -24 -59 3 -9 1 -12 -6 -7 -8 5 -10 1 -5 -10 5 -12 3 -15 -6 -9 -10
6 -11 3 -1 -16 10 -20 10 -22 -1 -12 -10 10 -18 5 -38 -25 -14 -20 -27 -53
-29 -72 -2 -19 -8 -36 -13 -38 -5 -2 -9 -8 -9 -13 0 -6 5 -7 12 -3 7 5 8 3 4
-5 -5 -7 -14 -10 -20 -8 -7 3 -13 -1 -13 -9 0 -7 4 -11 9 -8 15 9 8 -19 -9
-39 -13 -15 -14 -18 -3 -12 12 7 13 6 3 -7 -7 -8 -9 -19 -5 -24 4 -4 -1 -3
-10 4 -13 11 -16 11 -14 0 1 -7 5 -19 9 -25 5 -9 3 -11 -6 -7 -11 4 -14 -3
-13 -28 2 -33 -13 -70 -25 -63 -3 3 -4 -7 -1 -22 4 -20 2 -24 -9 -18 -11 7
-11 5 1 -10 12 -15 12 -17 1 -10 -11 6 -13 4 -8 -9 4 -9 3 -14 -2 -11 -5 3
-11 -7 -13 -22 -2 -17 -8 -27 -16 -25 -8 1 -11 -2 -8 -7 8 -12 -5 -72 -14 -66
-3 2 -7 -2 -7 -10 0 -8 5 -11 11 -8 6 3 5 0 -2 -8 -14 -15 -16 -33 -3 -25 15
10 6 -23 -12 -44 -11 -13 -12 -20 -4 -24 7 -2 4 -5 -5 -5 -12 -1 -15 -6 -11
-18 5 -12 3 -14 -8 -8 -11 6 -12 5 -2 -5 10 -11 10 -17 0 -29 -9 -12 -9 -13 1
-7 9 5 12 -5 13 -38 3 -100 3 -101 -18 -85 -15 12 -16 12 -8 -1 6 -8 10 -92
11 -187 l2 -172 -27 -5 c-70 -14 -282 -18 -310 -6 -64 26 -61 -21 -61 1062 0
968 0 983 20 1016 36 58 57 62 413 71 177 4 330 9 340 9 16 2 17 -19 17 -317z
m4156 284 c18 -7 43 -29 54 -47 20 -33 20 -48 20 -1018 0 -762 -3 -990 -13
-1009 -6 -13 -24 -33 -38 -44 -25 -18 -36 -19 -150 -11 l-124 9 1 74 c1 40 -2
68 -5 62 -4 -6 -7 -32 -6 -56 1 -25 -1 -48 -5 -50 -3 -2 -5 24 -4 58 1 35 -3
68 -10 76 -8 12 -8 13 2 7 10 -6 11 -1 7 21 -3 15 -7 33 -9 40 -1 7 -5 15 -8
18 -3 4 -3 19 1 33 6 24 7 48 1 55 -2 3 -7 25 -12 53 -2 12 -12 29 -21 38 -9
10 -14 22 -11 27 3 6 7 21 9 35 2 19 -1 22 -10 14 -10 -8 -15 -8 -21 1 -4 7
-3 9 3 6 6 -4 13 0 17 8 3 8 0 17 -6 21 -7 5 -8 2 -3 -6 5 -9 4 -11 -4 -6 -9
6 -9 11 0 22 10 12 10 15 -2 12 -10 -2 -14 8 -14 38 0 29 -4 40 -12 37 -9 -3
-13 4 -13 22 0 18 -4 24 -12 19 -10 -6 -10 -4 0 8 12 16 14 80 1 73 -3 -3 -4
-17 -1 -32 2 -16 2 -26 -1 -23 -3 3 -7 19 -10 35 -6 39 -17 65 -26 65 -4 0 -8
7 -8 15 0 11 4 12 14 3 7 -6 16 -8 20 -4 3 3 1 6 -5 6 -7 0 -12 5 -12 11 0 5
6 7 13 3 8 -5 8 -2 -2 9 -7 9 -19 17 -25 17 -6 0 -4 -5 4 -11 10 -7 11 -9 2
-7 -8 2 -12 6 -10 9 2 3 -4 14 -12 25 -14 17 -13 18 1 7 13 -10 16 -10 16 2 0
8 -5 15 -10 15 -5 0 -4 7 3 15 11 13 10 14 -3 10 -15 -6 -30 8 -33 33 -1 6 2
10 7 6 5 -3 6 -10 3 -16 -5 -7 -2 -8 6 -3 9 6 11 4 5 -5 -5 -9 -4 -11 4 -6 8
5 9 12 2 20 -6 7 -11 26 -13 42 -1 23 -7 30 -22 30 -15 -1 -20 4 -18 18 2 12
-1 16 -10 10 -7 -4 -10 -4 -6 1 4 4 3 14 -3 22 -6 7 -8 13 -5 13 4 0 -1 12
-12 28 -11 15 -20 30 -21 34 -5 24 -15 37 -25 31 -6 -3 -8 -3 -4 2 4 4 2 17
-4 29 -7 11 -13 27 -14 35 -2 7 -13 25 -26 39 -13 14 -17 22 -9 17 10 -6 13
-4 9 6 -22 52 -22 52 -7 44 11 -7 12 -6 2 7 -7 8 -9 19 -5 23 4 5 1 5 -6 1 -7
-4 -10 -12 -7 -17 4 -5 4 -9 0 -9 -3 0 -14 14 -25 32 -14 23 -16 36 -9 50 6
12 6 18 -1 18 -5 0 -10 -6 -11 -12 0 -7 -4 -4 -9 7 -5 11 -9 170 -9 354 l-1
334 346 -7 c262 -5 355 -10 380 -21z m-4300 -910 c-8 -8 -18 -15 -22 -15 -3 0
-1 7 6 15 7 8 17 15 22 15 5 0 3 -7 -6 -15z m-9 -40 c0 -8 -4 -12 -9 -9 -5 3
-6 10 -3 15 9 13 12 11 12 -6z m3830 -177 c-3 -8 -6 -5 -6 6 -1 11 2 17 5 13
3 -3 4 -12 1 -19z m-4040 -468 c-2 -11 -6 -22 -9 -26 -4 -3 -5 2 -3 13 2 10 4
21 4 26 1 4 3 7 6 7 3 0 4 -9 2 -20z m2458 -560 c367 -17 660 -46 905 -91 133
-25 158 -39 112 -63 -16 -8 -63 -24 -104 -35 -70 -18 -118 -19 -1308 -17
-1233 2 -1235 3 -1300 24 -70 23 -109 46 -98 57 10 11 168 42 326 64 405 59
985 83 1467 61z m-1800 -180 c177 -101 703 -160 1430 -160 732 0 1240 58 1423
162 l54 30 142 -46 c159 -52 239 -97 244 -136 2 -21 -36 -63 -230 -256 -481
-476 -665 -579 -1098 -614 -223 -18 -1093 -8 -1228 14 -328 54 -538 192 -1000
659 -127 128 -183 191 -180 203 7 37 134 101 298 150 96 28 84 29 145 -6z"/>
<path d="M793 3305 c0 -8 4 -12 9 -9 5 3 6 10 3 15 -9 13 -12 11 -12 -6z"/>
<path d="M564 2805 c0 -13 3 -22 7 -19 8 4 6 30 -2 38 -3 3 -5 -5 -5 -19z"/>
<path d="M435 2311 c-3 -5 -1 -12 5 -16 6 -4 8 -10 5 -15 -3 -5 -1 -11 4 -14
8 -5 8 15 1 34 -1 3 -2 8 -1 13 1 10 -7 9 -14 -2z"/>
<path d="M4311 3305 c0 -5 3 -16 8 -23 7 -11 9 -10 14 3 4 9 3 14 -2 10 -5 -3
-12 1 -14 7 -3 7 -6 9 -6 3z"/>
<path d="M4369 3235 c-5 -25 -1 -56 10 -69 7 -8 13 -21 15 -28 1 -7 13 -31 26
-53 14 -22 25 -42 25 -45 1 -3 7 -16 15 -30 8 -14 14 -29 15 -34 0 -5 7 -11
15 -13 12 -4 12 -3 1 5 -11 8 -11 10 0 15 11 4 11 6 1 6 -7 1 -10 6 -6 13 5 7
3 8 -6 3 -10 -6 -12 -4 -7 8 3 9 2 19 -4 22 -5 4 -6 11 -3 17 4 7 2 8 -4 4
-13 -8 -35 28 -24 39 4 5 1 4 -7 0 -11 -6 -13 -4 -8 8 3 9 2 19 -4 22 -5 4 -6
11 -3 17 5 7 2 8 -6 3 -10 -6 -12 -4 -7 9 4 9 3 14 -2 11 -13 -7 -20 6 -23 44
-2 28 -6 40 -9 26z"/>
<path d="M4645 2481 c-3 -5 -2 -12 3 -15 5 -3 9 1 9 9 0 17 -3 19 -12 6z"/>
<path d="M4675 2341 c-3 -5 -2 -12 3 -15 5 -3 9 1 9 9 0 17 -3 19 -12 6z"/>
<path d="M4735 2081 c-3 -5 -2 -12 3 -15 5 -3 9 1 9 9 0 17 -3 19 -12 6z"/>
<path d="M5056 1365 c-64 -26 -118 -65 -150 -108 -16 -21 -18 -33 -10 -54 14
-41 63 -64 149 -70 65 -5 75 -4 75 11 0 13 -12 16 -72 16 -55 0 -81 5 -105 20
-41 25 -41 40 -2 84 29 33 137 96 166 96 7 0 13 7 13 15 0 18 7 19 -64 -10z"/>
<path d="M0 1372 c0 -5 27 -21 61 -37 171 -82 170 -175 -2 -175 -48 0 -59 -3
-59 -16 0 -15 9 -16 65 -11 182 17 195 122 27 210 -70 37 -92 44 -92 29z"/>
<path d="M4906 986 c1 -25 6 -50 10 -58 4 -7 7 -27 5 -45 -1 -18 1 -33 6 -33
5 0 33 16 63 35 38 24 66 35 92 35 34 0 38 3 38 25 0 22 -4 25 -36 25 -20 0
-66 14 -104 30 -38 17 -70 30 -72 30 -2 0 -2 -20 -2 -44z"/>
<path d="M105 980 c-11 -5 -39 -9 -62 -9 -39 -1 -43 -3 -43 -26 0 -23 4 -25
43 -25 23 0 51 -6 62 -14 19 -13 20 -11 22 35 1 27 1 49 0 48 -1 0 -11 -4 -22
-9z"/>
</g>
</svg>
