<?xml version="1.0" encoding="iso-8859-1"?>
<!-- Generator: Adobe Illustrator 19.0.0, SVG Export Plug-In . SVG Version: 6.00 Build 0)  -->
<svg version="1.1" id="Layer_1" xmlns="http://www.w3.org/2000/svg" xmlns:xlink="http://www.w3.org/1999/xlink" x="0px" y="0px"
	 viewBox="0 0 512 512" style="enable-background:new 0 0 512 512;" xml:space="preserve">
<g>
	<path style="fill:#4C7FE1;" d="M50.359,127.257c-4.662,0-8.44,3.779-8.44,8.44s3.778,8.44,8.44,8.44h56.264v-16.879H50.359z"/>
	<path style="fill:#4C7FE1;" d="M461.641,127.257h-56.264v16.879h56.264c4.662,0,8.44-3.779,8.44-8.44
		S466.303,127.257,461.641,127.257z"/>
	<path style="fill:#4C7FE1;" d="M42.059,242.606c-4.662,0-8.44,3.779-8.44,8.44v38.071h16.879v-38.071
		C50.499,246.385,46.721,242.606,42.059,242.606z"/>
	<path style="fill:#4C7FE1;" d="M469.941,242.606c-4.662,0-8.44,3.779-8.44,8.44v38.071h16.879v-38.071
		C478.38,246.385,474.603,242.606,469.941,242.606z"/>
</g>
<line style="fill:none;stroke:#000000;stroke-width:15;stroke-linecap:round;stroke-linejoin:round;stroke-miterlimit:10;" x1="256" y1="182.069" x2="256" y2="104.752"/>
<path style="fill:#5BACF5;" d="M512,266.611v56.624c0,9.374-3.061,18.027-8.248,25.015c-7.652,10.341-19.951,17.048-33.814,17.048
	c-13.863,0-26.151-6.707-33.803-17.048c-5.188-6.988-8.248-15.641-8.248-25.015v-56.624H512z"/>
<path style="fill:#0E0A57;" d="M503.752,348.25v126.076h-67.618V348.25c7.652,10.341,19.94,17.048,33.803,17.048
	S496.1,358.591,503.752,348.25z"/>
<path style="fill:#353185;" d="M84.114,144.136v179.099c19.794,0,35.84,16.046,35.84,35.84v54.947h51.504L256,391.596l84.542,22.427
	h51.504v-54.947c0-19.794,16.046-35.84,35.84-35.84V144.136L256,104.752L84.114,144.136z"/>
<path style="fill:#4C7FE1;" d="M256,182.069c-35.637,0-66.121,22.044-78.555,53.237l16.407,53.811h124.298l16.406-53.811
	C322.121,204.114,291.637,182.069,256,182.069z"/>
<g>
	<polygon style="fill:#5BACF5;" points="171.458,266.611 171.458,369.236 256,391.742 340.542,369.236 340.542,266.611 	"/>
	<path style="fill:#5BACF5;" d="M84.114,266.611v56.624c0,9.374-3.061,18.027-8.248,25.015
		c-7.652,10.341-19.94,17.048-33.803,17.048S15.9,358.591,8.248,348.25C3.061,341.262,0,332.609,0,323.235v-56.624H84.114z"/>
</g>
<path style="fill:#0E0A57;" d="M75.866,348.25v126.076H8.248V348.25c7.652,10.341,19.951,17.048,33.815,17.048
	S68.214,358.591,75.866,348.25z"/>
<g>
	<circle style="fill:#FFD117;" cx="155.783" cy="266.611" r="38.071"/>
	<circle style="fill:#FFD117;" cx="356.217" cy="266.611" r="38.071"/>
</g>
<rect x="171.458" y="369.236" style="fill:#4C7FE1;" width="169.084" height="44.786"/>
<rect x="84.114" y="37.674" style="fill:#5BACF5;" width="343.771" height="106.462"/>
<rect x="100.993" y="54.553" style="fill:#FFFFFF;" width="310.013" height="72.704"/>
<g>
</g>
<g>
</g>
<g>
</g>
<g>
</g>
<g>
</g>
<g>
</g>
<g>
</g>
<g>
</g>
<g>
</g>
<g>
</g>
<g>
</g>
<g>
</g>
<g>
</g>
<g>
</g>
<g>
</g>
</svg>
