<?xml version="1.0" encoding="iso-8859-1"?>
<!-- Generator: Adobe Illustrator 19.0.0, SVG Export Plug-In . SVG Version: 6.00 Build 0)  -->
<svg version="1.1" id="Layer_1" xmlns="http://www.w3.org/2000/svg" xmlns:xlink="http://www.w3.org/1999/xlink" x="0px" y="0px"
	 viewBox="0 0 460 460" style="enable-background:new 0 0 460 460;" xml:space="preserve">
<g id="XMLID_2471_">
	<path id="XMLID_907_" style="fill:#6D523C;" d="M20,220c0,22.091,17.909,40,40,40l0,0v-90H20V220z"/>
	<path id="XMLID_900_" style="fill:#593E32;" d="M60,170v28.724c-0.079-0.02-0.157-0.041-0.236-0.062
		C49.796,196.027,40,203.364,40,213.675V220l0,0c-0.059,0-0.118,0-0.177,0c-10.866-0.047-19.776-8.957-19.823-19.823
		c0-0.059,0-0.118,0-0.177v-30H60z"/>
	<path id="XMLID_1020_" style="fill:#593E32;" d="M460,260L460,260c-27.614,0-50-22.386-50-50l0,0l0,0
		c23.258,0,43.283,16.417,47.845,39.223L460,260z"/>
	<path id="XMLID_520_" style="fill:#856648;" d="M430,230v10c0,46.325-35.001,84.469-80,89.444l0,0V350v90v10
		c0,5.523-4.477,10-10,10h-20v-10c0-5.523,4.477-10,10-10l-11.971-71.824C301.786,363.088,290,347.921,290,330l0,0h-80
		c-14.027,0-27.488-2.415-40-6.838l0,0V330v20v90v10c0,5.523-4.477,10-10,10h-20v-10c0-5.523,4.477-10,10-10l-11.971-71.824
		C121.786,363.088,110,347.921,110,330l0,0v-53.657l0,0C97.367,257.338,90,234.531,90,210l0,0l0,0c0-16.568-13.431-30-30-30H10
		c-5.523,0-10-4.477-10-10v-20l50-50l10-10l10-10h40v10h2.191c10.978,0,21.08,5.997,26.337,15.634l39.871,73.097
		C188.913,198.007,209.116,210,231.073,210H410C421.046,210,430,218.954,430,230z"/>
	<path id="XMLID_525_" style="fill:#593E32;" d="M170,323.162V350v90v10c0,5.523-4.477,10-10,10h-20v-10c0-5.523,4.477-10,10-10
		l-11.971-71.824C121.786,363.088,110,347.921,110,330v-53.657C124.274,297.815,145.276,314.423,170,323.162z"/>
	<path id="XMLID_526_" style="fill:#593E32;" d="M350,329.444V350v90v10c0,5.523-4.477,10-10,10h-20v-10c0-5.523,4.477-10,10-10
		l-11.971-71.824C301.786,363.088,290,347.921,290,330l0,0h50C343.381,330,346.716,329.807,350,329.444z"/>
	<path id="XMLID_463_" style="fill:#382620;" d="M150,440h20v10c0,5.523-4.477,10-10,10h-20v-10C140,444.477,144.477,440,150,440z"
		/>
	<path id="XMLID_468_" style="fill:#382620;" d="M330,440c-5.523,0-10,4.477-10,10v10h20c5.523,0,10-4.477,10-10v-10H330z"/>
	<path id="XMLID_905_" style="fill:#4F3327;" d="M30,120v30c0,5.523-4.477,10-10,10H0v-10L30,120z"/>
	<path id="XMLID_1129_" style="fill:#382620;" d="M70,115c0,2.761-2.239,5-5,5s-5-2.239-5-5s2.239-5,5-5S70,112.239,70,115z"/>
	<path id="XMLID_516_" style="fill:#6D523C;" d="M201.331,202.47c-9.949,4.226-20.764,6.811-32.109,7.399V210h-11.17
		c-17.217,0-32.503-11.017-37.947-27.351l0,0c-0.434-1.303,0.536-2.649,1.909-2.649h47.208v-0.21
		c2.872-0.219,5.687-0.638,8.443-1.217l0.087,0.159C183.3,188.905,191.55,197.047,201.331,202.47z"/>
	<path id="XMLID_512_" style="fill:#6D523C;" d="M322.428,303.499c-5.468-19.138-22.295-30.53-39.25-26.574l-39.592,9.238
		c-10.375,2.421-19.21,10.294-23.942,21.335L210,330h120L322.428,303.499z"/>
	<path id="XMLID_901_" style="fill:#AA9C7E;" d="M250,95c0,50.79-39.857,92.269-90,94.869V190h-11.17
		c-17.217,0-32.503-11.017-37.947-27.351l0,0c-0.434-1.303,0.536-2.649,1.909-2.649H160c33.559-2.556,60-30.786,60-65
		c0-35.898-29.102-65-65-65c-34.214,0-62.234,26.441-64.79,60H60.13C62.731,39.857,104.21,0,155,0C207.467,0,250,42.533,250,95z"/>
	<path id="XMLID_792_" style="fill:#C4B395;" d="M164.815,0.517C118.645,5.31,82.298,43.167,79.869,90H60
		c2.6-50.143,44.08-90,94.869-90C158.228,0,161.546,0.177,164.815,0.517z M174.869,30c-3.37,0-6.676,0.266-9.908,0.76
		C196.131,35.554,220,62.489,220,95c0,34.214-26.441,62.444-60,65h15.103c7.086,0,14.164-1.017,20.863-3.326
		c25.541-8.806,43.903-33.162,43.903-61.674C239.869,59.102,210.768,30,174.869,30z"/>
	<path id="XMLID_445_" style="fill:#82735A;" d="M109.869,90H90c2.556-33.559,30.575-60,64.79-60c3.388,0,6.714,0.261,9.962,0.76
		C135.175,35.287,112.174,59.746,109.869,90z"/>
	<path id="XMLID_505_" style="fill:#82735A;" d="M129.974,162.649L129.974,162.649c-0.434-1.303,0.536-2.649,1.909-2.649h-19.869
		c-1.374,0-2.344,1.346-1.909,2.649l0,0C115.55,178.983,130.835,190,148.052,190h11.17v-0.131c1.115-0.058,2.222-0.142,3.327-0.238
		C147.591,187.609,134.844,177.26,129.974,162.649z"/>
	<path id="XMLID_487_" style="fill:#856648;" d="M150,270h60v50v30v90v10c0,5.523-4.477,10-10,10h-20v-10c0-5.523,4.477-10,10-10
		l-11.971-71.824C161.786,363.088,150,347.921,150,330V270z"/>
	<path id="XMLID_491_" style="fill:#856648;" d="M310,270l24.73,78.877c3.136,10.001,12.403,16.807,22.884,16.807L370,440
		c-5.523,0-10,4.477-10,10v10h20c5.523,0,10-4.477,10-10v-10v-75.365c11.953-6.917,20-19.832,20-34.635v-60H310z"/>
	<path id="XMLID_245_" style="fill:#4C3127;" d="M190,440h20v10c0,5.523-4.477,10-10,10h-20v-10C180,444.477,184.477,440,190,440z"
		/>
	<path id="XMLID_458_" style="fill:#4C3127;" d="M370,440c-5.523,0-10,4.477-10,10v10h20c5.523,0,10-4.477,10-10v-10H370z"/>
	<path id="XMLID_495_" style="fill:#856648;" d="M90,60L90,60c5.523,0,10,4.477,10,10v30H80V70C80,64.477,84.477,60,90,60z"/>
</g>
<g>
</g>
<g>
</g>
<g>
</g>
<g>
</g>
<g>
</g>
<g>
</g>
<g>
</g>
<g>
</g>
<g>
</g>
<g>
</g>
<g>
</g>
<g>
</g>
<g>
</g>
<g>
</g>
<g>
</g>
</svg>
