<?xml version="1.0" encoding="utf-8"?>
<!-- Generator: Adobe Illustrator 11.0, SVG Export Plug-In  -->
<!DOCTYPE svg PUBLIC "-//W3C//DTD SVG 1.0//EN"    "http://www.w3.org/TR/2001/REC-SVG-20010904/DTD/svg10.dtd" [
	<!ENTITY ns_flows "http://ns.adobe.com/Flows/1.0/">
	<!ENTITY ns_svg "http://www.w3.org/2000/svg">
	<!ENTITY ns_xlink "http://www.w3.org/1999/xlink">
]>
<svg  xmlns="&ns_svg;" xmlns:xlink="&ns_xlink;" xmlns:a="http://ns.adobe.com/AdobeSVGViewerExtensions/3.0/"
	 width="542" height="408" viewBox="-0.072 -0.4 542 408" xml:space="preserve">
	<defs>
	</defs>
	<g>
		<rect width="541.296" height="407.52"/> 
		<polygon fill="#F06000" points="179.784,397.512 179.784,365.544 191.736,365.544 191.736,397.512 353.52,397.512 353.52,365.544 
			365.544,365.544 365.544,397.512 531.288,397.512 531.288,10.008 365.544,10.008 365.544,37.944 353.52,37.944 353.52,10.008 
			10.008,10.008 10.008,397.512 "/>
		<rect x="353.52" y="65.952" width="12.024" height="31.968"/> 
		<rect x="353.52" y="185.76" width="12.024" height="31.968"/> 
		<rect x="353.52" y="125.856" width="12.024" height="31.968"/> 
		<path d="M129.456,194.04c-29.952,23.472-47.52,59.328-47.592,97.416v72.072h23.976v-71.856
			c0.072-30.888,14.256-59.832,38.376-78.696l25.128-19.8l25.92,32.976l23.184-86.832l-89.856,2.088l25.92,32.904l-25.056,19.8
			V194.04z"/>
		<polygon points="437.4,361.584 437.4,113.904 395.496,113.904 449.424,41.976 503.352,113.904 461.376,113.904 461.376,361.584 
			"/>
		<rect x="353.52" y="245.736" width="12.024" height="31.896"/> 
		<rect x="353.52" y="305.64" width="12.024" height="31.968"/> 
		<polygon points="263.664,363.528 263.664,115.848 221.688,115.848 275.616,43.992 329.544,115.848 287.64,115.848 287.64,363.528 
			"/>
		<polygon points="25.992,225.72 185.76,25.992 25.992,25.992 "/>
		<rect x="179.784" y="245.736" width="11.952" height="31.896"/> 
		<rect x="179.784" y="305.64" width="11.952" height="31.968"/> 
	</g>
</svg>
