<?xml version="1.0" encoding="iso-8859-1"?>
<!-- Generator: Adobe Illustrator 19.0.0, SVG Export Plug-In . SVG Version: 6.00 Build 0)  -->
<svg version="1.1" id="Layer_1" xmlns="http://www.w3.org/2000/svg" xmlns:xlink="http://www.w3.org/1999/xlink" x="0px" y="0px"
	 viewBox="0 0 512 512" style="enable-background:new 0 0 512 512;" xml:space="preserve">
<g>
	<path style="fill:#0E0A57;" d="M471.149,503.83h-32.681c-3.28,0-6.241-1.961-7.521-4.979l-21.994-51.853
		c-3.764-8.874-15.09-19.317-24.238-22.352l-53.639-17.79h-150.15l-53.64,17.79c-9.148,3.034-20.475,13.479-24.238,22.352
		L81.053,498.85c-1.28,3.019-4.242,4.979-7.521,4.979H40.851c-4.512,0-8.17-3.657-8.17-8.17c0-4.513,3.658-8.17,8.17-8.17h27.272
		l19.881-46.872c5.58-13.154,20.575-26.982,34.137-31.48l54.893-18.205c0.829-0.275,1.698-0.415,2.572-0.415h152.787
		c0.875,0,1.743,0.141,2.572,0.415l54.893,18.205c13.563,4.499,28.558,18.326,34.136,31.48l19.883,46.872h27.271
		c4.513,0,8.17,3.657,8.17,8.17C479.319,500.173,475.662,503.83,471.149,503.83z"/>
	<rect x="247.83" y="49.021" style="fill:#0E0A57;" width="16.34" height="43.159"/>
</g>
<g>
	<path style="fill:#353185;" d="M503.83,57.191H8.17c-4.512,0-8.17-3.657-8.17-8.17s3.658-8.17,8.17-8.17h495.66
		c4.513,0,8.17,3.657,8.17,8.17S508.343,57.191,503.83,57.191z"/>
	<path style="fill:#353185;" d="M321.458,24.511H190.542c-4.512,0-8.17-3.657-8.17-8.17s3.658-8.17,8.17-8.17h130.914
		c4.513,0,8.17,3.657,8.17,8.17S325.97,24.511,321.458,24.511z"/>
	<polygon style="fill:#353185;" points="285.254,81.702 226.746,81.702 216.709,119.89 295.291,119.89 	"/>
	<path style="fill:#353185;" d="M403.215,289.219h-294.43c0,58.36,23.857,97.456,60.561,119.354v-40.921
		c2.263-25.58,23.734-45.641,49.901-45.641h73.504c26.168,0,47.639,20.062,49.901,45.641v40.921
		C379.358,386.675,403.215,347.579,403.215,289.219z"/>
</g>
<path style="fill:#0E0A57;" d="M292.752,322.01h-73.504c-26.168,0-47.639,20.062-49.901,45.641v40.921
	c24.312,14.504,54.258,21.467,86.653,21.467s62.342-6.963,86.653-21.467v-40.921C340.392,342.072,318.92,322.01,292.752,322.01z"/>
<path style="fill:#B8DDFF;" d="M108.785,289.219h169.002L256,113.553C174.695,113.553,108.785,192.202,108.785,289.219z"/>
<path style="fill:#5BACF5;" d="M256,113.553v175.666h147.215C403.215,192.202,337.305,113.553,256,113.553z"/>
<path style="fill:#353185;" d="M405.939,297.389H106.061c-4.512,0-8.17-3.657-8.17-8.17c0-4.513,3.658-8.17,8.17-8.17h299.877
	c4.513,0,8.17,3.657,8.17,8.17C414.109,293.732,410.451,297.389,405.939,297.389z"/>
<g>
</g>
<g>
</g>
<g>
</g>
<g>
</g>
<g>
</g>
<g>
</g>
<g>
</g>
<g>
</g>
<g>
</g>
<g>
</g>
<g>
</g>
<g>
</g>
<g>
</g>
<g>
</g>
<g>
</g>
</svg>
