<?xml version="1.0" encoding="iso-8859-1"?>
<!-- Generator: Adobe Illustrator 19.0.0, SVG Export Plug-In . SVG Version: 6.00 Build 0)  -->
<svg version="1.1" id="Layer_1" xmlns="http://www.w3.org/2000/svg" xmlns:xlink="http://www.w3.org/1999/xlink" x="0px" y="0px"
	 viewBox="0 0 512 512" style="enable-background:new 0 0 512 512;" xml:space="preserve">
<g>
	<rect x="210.696" y="397.222" style="fill:#E42105;" width="16.879" height="97.899"/>
	<rect x="284.424" y="397.222" style="fill:#E42105;" width="16.879" height="97.899"/>
</g>
<path style="fill:#FF7039;" d="M210.699,464.457v30.664c0,9.284,7.596,16.879,16.879,16.879h56.844
	c9.284,0,16.879-7.596,16.879-16.879v-30.664H210.699z"/>
<polygon style="fill:#4C7FE1;" points="167.254,360.651 210.699,416.914 301.301,416.914 344.746,360.651 256,338.145 "/>
<path style="fill:#E42105;" d="M256,0l29.582,360.651h59.164l54.117-70.085c23.535-30.475,37.539-68.68,37.539-110.163
	C436.402,80.769,355.633,0,256,0z"/>
<path style="fill:#5BACF5;" d="M75.598,180.402c0,41.483,14.003,79.689,37.539,110.163l54.117,70.085h59.164L256,0
	C156.367,0,75.598,80.769,75.598,180.402z"/>
<path style="fill:#FFD117;" d="M195.866,180.402c0,41.483,4.668,79.689,12.513,110.163l18.039,70.085h59.164l18.039-70.085
	c7.845-30.475,12.513-68.68,12.513-110.163C316.134,80.769,289.211,0,256,0S195.866,80.769,195.866,180.402z"/>
<g>
</g>
<g>
</g>
<g>
</g>
<g>
</g>
<g>
</g>
<g>
</g>
<g>
</g>
<g>
</g>
<g>
</g>
<g>
</g>
<g>
</g>
<g>
</g>
<g>
</g>
<g>
</g>
<g>
</g>
</svg>
