<?xml version="1.0" encoding="iso-8859-1"?>
<!-- Generator: Adobe Illustrator 19.0.0, SVG Export Plug-In . SVG Version: 6.00 Build 0)  -->
<svg version="1.1" id="Layer_1" xmlns="http://www.w3.org/2000/svg" xmlns:xlink="http://www.w3.org/1999/xlink" x="0px" y="0px"
	 viewBox="0 0 512 512" style="enable-background:new 0 0 512 512;" xml:space="preserve">
<g>
	<path style="fill:#FEC99F;" d="M489.794,170.016h-3.975c-4.487,0-8.124,3.637-8.124,8.124v53.49h-87.196v16.248h99.295
		c12.245,0,22.206-9.961,22.206-22.206v-33.451C512,179.977,502.039,170.016,489.794,170.016z"/>
	<path style="fill:#FEC99F;" d="M22.206,170.016h3.975c4.487,0,8.124,3.637,8.124,8.124v53.49h87.196v16.248H22.206
		C9.961,247.879,0,237.917,0,225.673v-33.451C0,179.977,9.961,170.016,22.206,170.016z"/>
</g>
<g>
	<rect x="69.51" y="424.167" style="fill:#0E0A57;" width="69.477" height="78.262"/>
	<rect x="373.005" y="424.167" style="fill:#0E0A57;" width="69.477" height="78.262"/>
</g>
<path style="fill:#FEC99F;" d="M362.838,325.198H149.163l-90.481,75.825v33.98c0,5.958,4.874,10.832,10.832,10.832h372.973
	c5.958,0,10.832-4.874,10.832-10.832v-33.98L362.838,325.198z"/>
<g>
	<path style="fill:#FF7039;" d="M149.162,336.031v37.913c0,14.948-12.121,27.08-27.08,27.08H58.681v-54.161L149.162,336.031z"/>
	<path style="fill:#FF7039;" d="M453.318,346.863v54.161h-63.401c-14.959,0-27.08-12.132-27.08-27.08v-37.913L453.318,346.863z"/>
</g>
<path style="fill:#FFB367;" d="M404.573,47.483H107.427c-26.81,0-48.745,21.935-48.745,48.745v250.634h394.637V96.227
	C453.318,69.418,431.383,47.483,404.573,47.483z"/>
<path style="fill:#3D51CC;" d="M345.117,31.072C343.643,19.243,332.681,9.57,320.766,9.57H191.235
	c-11.915,0-22.877,9.673-24.351,21.502l-8.146,65.155l97.262,32.496l97.262-32.496L345.117,31.072z"/>
<rect x="74.926" y="96.224" style="fill:#FFFFFF;" width="362.14" height="151.65"/>
<g>
</g>
<g>
</g>
<g>
</g>
<g>
</g>
<g>
</g>
<g>
</g>
<g>
</g>
<g>
</g>
<g>
</g>
<g>
</g>
<g>
</g>
<g>
</g>
<g>
</g>
<g>
</g>
<g>
</g>
</svg>
