<?xml version="1.0" encoding="iso-8859-1"?>
<!-- Generator: Adobe Illustrator 19.0.0, SVG Export Plug-In . SVG Version: 6.00 Build 0)  -->
<svg version="1.1" id="Layer_1" xmlns="http://www.w3.org/2000/svg" xmlns:xlink="http://www.w3.org/1999/xlink" x="0px" y="0px"
	 viewBox="0 0 512 512" style="enable-background:new 0 0 512 512;" xml:space="preserve">
<g>
	<path style="fill:#0E0A57;" d="M144.143,7.621c-4.661,0-8.44,3.779-8.44,8.44v33.758h16.879V16.06
		C152.583,11.4,148.804,7.621,144.143,7.621z"/>
	<path style="fill:#0E0A57;" d="M367.857,7.621c-4.662,0-8.44,3.779-8.44,8.44v33.758h16.879V16.06
		C376.296,11.4,372.519,7.621,367.857,7.621z"/>
</g>
<g>
	<path style="fill:#961300;" d="M502.998,146.099h-52.135v16.879h52.135c4.662,0,8.44-3.779,8.44-8.44
		S507.66,146.099,502.998,146.099z"/>
	<path style="fill:#961300;" d="M9.002,146.099c-4.661,0-8.44,3.779-8.44,8.44s3.779,8.44,8.44,8.44h52.135v-16.879H9.002z"/>
</g>
<path style="fill:#E42105;" d="M505.946,240.058l-19.726-51.763L441.209,70.141c-6.56-17.363-27.119-31.575-45.686-31.575H116.477
	c-18.567,0-39.205,14.178-45.855,31.519l-44.977,118.21L5.964,240.024C2.678,248.711,0,263.407,0,272.691v16.429l256,33.758
	l256-33.758v-16.429C512,263.407,509.277,248.722,505.946,240.058z"/>
<path style="fill:#FFFFFF;" d="M468.158,188.295L425.42,76.107c-4.087-10.814-18.336-20.662-29.896-20.662H116.477
	c-11.599,0-25.943,9.859-30.079,20.642L43.653,188.295L468.158,188.295L468.158,188.295z"/>
<g>
	<rect x="11.253" y="423.078" style="fill:#0E0A57;" width="77.543" height="81.301"/>
	<rect x="423.205" y="423.078" style="fill:#0E0A57;" width="77.543" height="81.301"/>
</g>
<polygon style="fill:#961300;" points="70.026,289.12 441.974,289.12 386.791,344.303 125.209,344.303 "/>
<g>
	<path style="fill:#FF7039;" d="M125.209,344.303l-62.605,22.505L0,344.303V289.12h70.026
		C100.498,289.12,125.209,313.831,125.209,344.303z"/>
	<path style="fill:#FF7039;" d="M512,289.12v55.183l-62.605,22.505l-62.605-22.505c0-30.472,24.711-55.183,55.183-55.183H512z"/>
</g>
<rect y="344.309" style="fill:#4C7FE1;" width="512" height="101.275"/>
<g>
	<path style="fill:#FFFFFF;" d="M61.89,378.061c9.317,0,16.879,7.562,16.879,16.879c0,9.317-7.562,16.879-16.879,16.879
		s-16.879-7.562-16.879-16.879C45.011,385.623,52.573,378.061,61.89,378.061z"/>
	<path style="fill:#FFFFFF;" d="M450.11,378.061c9.317,0,16.879,7.562,16.879,16.879c0,9.317-7.562,16.879-16.879,16.879
		c-9.317,0-16.879-7.562-16.879-16.879C433.231,385.623,440.793,378.061,450.11,378.061z"/>
</g>
<path style="fill:#3D51CC;" d="M349.612,403.38H162.388c-4.661,0-8.44-3.779-8.44-8.44s3.779-8.44,8.44-8.44h187.223
	c4.662,0,8.44,3.779,8.44,8.44S354.274,403.38,349.612,403.38z"/>
<g>
</g>
<g>
</g>
<g>
</g>
<g>
</g>
<g>
</g>
<g>
</g>
<g>
</g>
<g>
</g>
<g>
</g>
<g>
</g>
<g>
</g>
<g>
</g>
<g>
</g>
<g>
</g>
<g>
</g>
</svg>
