<?xml version="1.0" encoding="UTF-8"?>
<!DOCTYPE svg PUBLIC "-//W3C//DTD SVG 1.0//EN" "http://www.w3.org/TR/2001/REC-SVG-20010904/DTD/svg10.dtd">
<svg width="161mm" height="214mm" viewBox="0 0 16100 21400" xmlns="http://www.w3.org/2000/svg">
 <g style="stroke:none;fill:rgb(0,176,10)">
  <polygon points="0,0 16084,0 16084,21443 0,21443 0,0"/>
  <polyline points="0,0 16084,0 16084,21443 0,21443 0,0" style="fill:none"/>
 </g>
 <g style="stroke:rgb(0,0,0);fill:rgb(0,176,10)">
  <polyline points="0,0 16084,0 16084,21443 0,21443 0,0" style="fill:none"/>
 </g>
 <g style="stroke:none;fill:rgb(255,255,255)">
  <polygon points="942,0 15151,0 15245,8 15338,25 15431,42 15516,76 15601,118 15677,161 15745,220 15813,279 15872,347 15931,416 15973,492 16016,576 16050,661 16067,754 16084,847 16092,940 16092,20503 16084,20596 16067,20690 16050,20783 16016,20868 15973,20952 15931,21028 15872,21096 15813,21164 15745,21223 15677,21282 15601,21325 15516,21367 15431,21401 15338,21418 15245,21435 15151,21443 942,21443 847,21435 754,21418 661,21401 577,21367 492,21325 416,21282 348,21231 279,21164 220,21096 161,21028 119,20952 76,20868 51,20783 25,20690 8,20596 8,20503 8,940 8,847 25,754 42,661 76,576 119,492 161,416 220,347 279,279 348,220 416,161 492,118 577,76 661,42 754,25 847,8 942,0"/>
  <polyline points="942,0 15151,0 15245,8 15338,25 15431,42 15516,76 15601,118 15677,161 15745,220 15813,279 15872,347 15931,416 15973,492 16016,576 16050,661 16067,754 16084,847 16092,940 16092,20503 16084,20596 16067,20690 16050,20783 16016,20868 15973,20952 15931,21028 15872,21096 15813,21164 15745,21223 15677,21282 15601,21325 15516,21367 15431,21401 15338,21418 15245,21435 15151,21443 942,21443 847,21435 754,21418 661,21401 577,21367 492,21325 416,21282 348,21231 279,21164 220,21096 161,21028 119,20952 76,20868 51,20783 25,20690 8,20596 8,20503 8,940 8,847 25,754 42,661 76,576 119,492 161,416 220,347 279,279 348,220 416,161 492,118 577,76 661,42 754,25 847,8 942,0" style="fill:none"/>
 </g>
 <g style="stroke:rgb(0,0,0);fill:rgb(255,255,255)">
  <polyline points="942,0 15151,0 15245,8 15338,25 15431,42 15516,76 15601,118 15677,161 15745,220 15813,279 15872,347 15931,416 15973,492 16016,576 16050,661 16067,754 16084,847 16092,940 16092,20503 16084,20596 16067,20690 16050,20783 16016,20868 15973,20952 15931,21028 15872,21096 15813,21164 15745,21223 15677,21282 15601,21325 15516,21367 15431,21401 15338,21418 15245,21435 15151,21443 942,21443 847,21435 754,21418 661,21401 577,21367 492,21325 416,21282 348,21231 279,21164 220,21096 161,21028 119,20952 76,20868 51,20783 25,20690 8,20596 8,20503 8,940 8,847 25,754 42,661 76,576 119,492 161,416 220,347 279,279 348,220 416,161 492,118 577,76 661,42 754,25 847,8 942,0" style="fill:none"/>
 </g>
 <g style="stroke:none;fill:rgb(0,176,10)">
  <polygon points="942,407 15151,407 15202,416 15261,416 15312,433 15363,449 15405,475 15448,500 15490,534 15533,568 15567,602 15593,644 15626,686 15643,737 15660,788 15677,839 15686,889 15686,940 15686,20503 15686,20554 15677,20613 15660,20665 15643,20715 15626,20758 15593,20800 15567,20842 15533,20885 15490,20918 15448,20952 15405,20978 15363,20995 15312,21020 15261,21028 15202,21037 15151,21037 942,21037 890,21037 831,21028 780,21020 737,21003 687,20978 644,20952 602,20918 560,20885 526,20842 500,20808 467,20758 450,20715 433,20665 416,20613 407,20562 407,20503 407,940 407,889 416,839 433,788 450,737 467,686 500,644 526,602 560,568 602,534 644,500 687,475 729,449 780,433 831,416 890,416 942,407"/>
  <polyline points="942,407 15151,407 15202,416 15261,416 15312,433 15363,449 15405,475 15448,500 15490,534 15533,568 15567,602 15593,644 15626,686 15643,737 15660,788 15677,839 15686,889 15686,940 15686,20503 15686,20554 15677,20613 15660,20665 15643,20715 15626,20758 15593,20800 15567,20842 15533,20885 15490,20918 15448,20952 15405,20978 15363,20995 15312,21020 15261,21028 15202,21037 15151,21037 942,21037 890,21037 831,21028 780,21020 737,21003 687,20978 644,20952 602,20918 560,20885 526,20842 500,20808 467,20758 450,20715 433,20665 416,20613 407,20562 407,20503 407,940 407,889 416,839 433,788 450,737 467,686 500,644 526,602 560,568 602,534 644,500 687,475 729,449 780,433 831,416 890,416 942,407" style="fill:none"/>
 </g>
 <g style="stroke:none;fill:rgb(255,255,255)">
  <polygon points="5545,9921 7326,9921 6961,19698 3874,19698 5545,9921"/>
  <polyline points="5545,9921 7326,9921 6961,19698 3874,19698 5545,9921" style="fill:none"/>
  <polygon points="9106,19698 8741,9912 10522,9912 12184,19698 9106,19698"/>
  <polyline points="9106,19698 8741,9912 10522,9912 12184,19698 9106,19698" style="fill:none"/>
  <polygon points="14736,8583 12727,8583 12989,9921 11379,9921 11649,8583 4426,8583 4689,9921 3086,9921 3358,8583 1339,8583 1339,7905 14736,7905 14736,8583"/>
  <polyline points="14736,8583 12727,8583 12989,9921 11379,9921 11649,8583 4426,8583 4689,9921 3086,9921 3358,8583 1339,8583 1339,7905 14736,7905 14736,8583" style="fill:none"/>
  <polygon points="5978,7371 6961,1610 7631,1610 7419,7371 5978,7371"/>
  <polyline points="5978,7371 6961,1610 7631,1610 7419,7371 5978,7371" style="fill:none"/>
  <polygon points="10082,7371 9106,1610 8436,1610 8648,7371 10082,7371"/>
  <polyline points="10082,7371 9106,1610 8436,1610 8648,7371 10082,7371" style="fill:none"/>
 </g>
</svg>