<?xml version="1.0" encoding="iso-8859-1"?>
<!-- Generator: Adobe Illustrator 19.0.0, SVG Export Plug-In . SVG Version: 6.00 Build 0)  -->
<svg version="1.1" id="Layer_1" xmlns="http://www.w3.org/2000/svg" xmlns:xlink="http://www.w3.org/1999/xlink" x="0px" y="0px"
	 viewBox="0 0 512 512" style="enable-background:new 0 0 512 512;" xml:space="preserve">
<path style="fill:#FF7039;" d="M317.675,120.007l-123.1-0.14c-38.865,21.609-65.162,63.09-65.162,110.711v143.658
	c0,30.386,22.198,55.821,51.176,60.936l148.105,0.416c30.296-3.955,53.893-30.023,53.893-61.352V230.58
	C382.587,183.059,356.402,141.655,317.675,120.007z"/>
<path style="fill:#0E0A57;" d="M427.597,84.296H84.403c-4.662,0-8.44-3.778-8.44-8.44s3.778-8.44,8.44-8.44h343.195
	c4.662,0,8.44,3.778,8.44,8.44C436.037,80.519,432.259,84.296,427.597,84.296z"/>
<path style="fill:#E42105;" d="M369.858,52.737h-41.601C318.477,22.151,289.83,0,256,0s-62.477,22.151-72.257,52.737h-41.601
	c-7.03,0-12.729,5.698-12.729,12.728v20.786c0,7.03,5.698,12.728,12.729,12.728h41.601c9.78,30.586,38.427,52.737,72.257,52.737
	s62.477-22.151,72.257-52.737h41.601c7.03,0,12.729-5.698,12.729-12.728V65.465C382.587,58.435,376.888,52.737,369.858,52.737z"/>
<path style="fill:#0E0A57;" d="M214.347,348.066v123.639c0,22.255,18.04,40.295,40.295,40.295s40.295-18.04,40.295-40.295V348.066
	H214.347z"/>
<circle style="fill:#FFD117;" cx="256" cy="75.855" r="42.1"/>
<path style="fill:#3D51CC;" d="M275.046,247.816h-40.809c-4.662,0-8.44-3.778-8.44-8.44c0-4.662,3.778-8.44,8.44-8.44h40.809
	c4.662,0,8.44,3.778,8.44,8.44C283.486,244.039,279.708,247.816,275.046,247.816z"/>
<path style="fill:#E42105;" d="M254.642,264.696c-34.684,0-62.8,28.117-62.8,62.8v31.823h125.601v-31.823
	C317.442,292.813,289.326,264.696,254.642,264.696z"/>
<g>
</g>
<g>
</g>
<g>
</g>
<g>
</g>
<g>
</g>
<g>
</g>
<g>
</g>
<g>
</g>
<g>
</g>
<g>
</g>
<g>
</g>
<g>
</g>
<g>
</g>
<g>
</g>
<g>
</g>
</svg>
