<?xml version="1.0" encoding="iso-8859-1"?>
<!-- Generator: Adobe Illustrator 19.0.0, SVG Export Plug-In . SVG Version: 6.00 Build 0)  -->
<svg version="1.1" id="Layer_1" xmlns="http://www.w3.org/2000/svg" xmlns:xlink="http://www.w3.org/1999/xlink" x="0px" y="0px"
	 viewBox="0 0 460.001 460.001" style="enable-background:new 0 0 460.001 460.001;" xml:space="preserve">
<g id="XMLID_2804_">
	<path id="XMLID_2287_" style="fill:#66453E;" d="M435,235.001c-9.409,0-17.604-5.198-21.869-12.879
		c-1.774-3.194,0.475-7.121,4.128-7.121h0.582c1.749,0,3.31,0.986,4.186,2.5c2.591,4.481,7.425,7.5,12.974,7.5
		c8.363,0,15.127-6.844,14.998-15.237c-0.113-7.356-5.76-13.659-13.052-14.633c-2.466-0.33-4.81-0.014-6.946,0.742h-10v-10.872
		h16.256l-0.027,0.046c0.417,0.02,0.832,0.034,1.252,0.075c12.13,1.177,21.777,11.238,22.476,23.404
		C460.789,223.002,449.296,235.001,435,235.001z"/>
	<path id="XMLID_1265_" style="fill:#B78579;" d="M150,91.668v33.333h-40V91.668c0-10.905,7.856-20.585,20-26.667
		C142.144,71.083,150,80.763,150,91.668z"/>
	<path id="XMLID_1130_" style="fill:#DCBAB1;" d="M430,195.001v40c0,27.614-22.386,50-50,50H190h-40h-36.393
		c-15.524,0-30.836-3.614-44.721-10.557L50,265.001l0,0v-20H10c-5.523,0-10-4.477-10-10v-20c0-5.523,4.477-10,10-10h33.508
		c4.669,0,8.672-3.242,9.749-7.785c8.92-37.626,35.542-68.398,70.597-83.016c3.722-1.553,6.147-5.188,6.147-9.221V91.668
		c0-10.905,7.856-20.585,20-26.667c12.144,6.082,20,15.762,20,26.667v3.333c0,5.523,4.477,10,10,10h10h40h110
		C389.706,105.001,430,145.295,430,195.001z"/>
	<path id="XMLID_1151_" style="fill:#B78579;" d="M170,265.001v20L146.866,386.79c-1.081,4.755-6.257,8.211-12.298,8.211H120h-20
		v-15c0-2.761,2.239-5,5-5h5c5.523,0,10-4.477,10-10v-80v-20H170z"/>
	<path id="XMLID_2206_" style="fill:#B78579;" d="M350,265.001v20L326.866,386.79c-1.081,4.755-6.257,8.211-12.298,8.211H300h-20
		v-15c0-2.761,2.239-5,5-5h5c5.523,0,10-4.477,10-10v-80v-20H350z"/>
	<path id="XMLID_2201_" style="fill:#EDD3CE;" d="M340,105.001H190c-11.046,0-20,8.954-20,20l0,0c0,27.614,22.386,50,50,50h90
		c27.614,0,50-22.386,50-50l0,0C360,113.955,351.046,105.001,340,105.001z"/>
	<path id="XMLID_1165_" style="fill:#A07068;" d="M120,265.001h50v40h-50V265.001z"/>
	<path id="XMLID_1222_" style="fill:#A07068;" d="M300,265.001v40h50v-40H300z"/>
	<path id="XMLID_461_" style="fill:#D1A397;" d="M430,195.001v40c0,27.614-22.386,50-50,50L356.866,386.79
		c-1.081,4.755-6.257,8.211-12.298,8.211H330h-20v-15c0-2.761,2.239-5,5-5h5c5.523,0,10-4.477,10-10v-80H200L176.866,386.79
		c-1.081,4.755-6.257,8.211-12.298,8.211H150h-20v-15c0-2.761,2.239-5,5-5h5c5.523,0,10-4.477,10-10v-80h-36.393
		c-15.524,0-30.836-3.614-44.721-10.557L50,265.001c-5.523,0-10-4.477-10-10v-10h270c44.183,0,80-35.817,80-80
		c0-18.012,24.63-23.446,32.051-7.034C427.157,169.262,430,181.799,430,195.001z"/>
	<path id="XMLID_2288_" style="fill:#B78579;" d="M40,255.001h20c5.523,0,10-4.477,10-10H40V255.001z"/>
	<path id="XMLID_1111_" style="fill:#EDD3CE;" d="M43.508,205.001c0.529,0,1.047-0.047,1.556-0.127l-2.3,4.6
		c-1.694,3.387-5.157,5.527-8.944,5.527H0l0,0c0-5.523,4.477-10,10-10H43.508z"/>
	<path id="XMLID_2289_" style="fill:#B78579;" d="M10,205.001v40c-5.523,0-10-4.477-10-10v-20C0,209.478,4.477,205.001,10,205.001z"
		/>
	<path id="XMLID_1266_" style="fill:#B78579;" d="M150,85.001c-6.072,3.041-10,7.881-10,13.333v21.667c0,2.761,2.239,5,5,5h10
		c2.761,0,5-2.239,5-5V98.334C160,92.882,156.072,88.042,150,85.001z"/>
	<path id="XMLID_2286_" style="fill:#66453E;" d="M435,235.001c-9.409,0-17.604-5.198-21.869-12.879
		c-1.774-3.194,0.475-7.121,4.128-7.121h0.582c1.749,0,3.31,0.986,4.186,2.5c2.591,4.481,7.425,7.5,12.974,7.5
		c8.363,0,15.127-6.844,14.998-15.237c-0.113-7.356-5.76-13.659-13.052-14.633c-2.466-0.33-4.81-0.014-6.946,0.742v-10.371
		c2.388-0.485,4.899-0.631,7.482-0.38c12.13,1.177,21.777,11.238,22.476,23.404C460.789,223.002,449.296,235.001,435,235.001z"/>
	<path id="XMLID_1243_" style="fill:#66453E;" d="M115,165.001c-2.761,0-5,2.239-5,5s2.239,5,5,5s5-2.239,5-5
		S117.761,165.001,115,165.001z"/>
</g>
<g>
</g>
<g>
</g>
<g>
</g>
<g>
</g>
<g>
</g>
<g>
</g>
<g>
</g>
<g>
</g>
<g>
</g>
<g>
</g>
<g>
</g>
<g>
</g>
<g>
</g>
<g>
</g>
<g>
</g>
</svg>
