<?xml version="1.0" encoding="iso-8859-1"?>
<!-- Generator: Adobe Illustrator 19.0.0, SVG Export Plug-In . SVG Version: 6.00 Build 0)  -->
<svg version="1.1" id="Layer_1" xmlns="http://www.w3.org/2000/svg" xmlns:xlink="http://www.w3.org/1999/xlink" x="0px" y="0px"
	 viewBox="0 0 512 512" style="enable-background:new 0 0 512 512;" xml:space="preserve">
<rect x="129.805" y="153.284" style="fill:#FCDED6;" width="252.405" height="117.041"/>
<path style="fill:#E42105;" d="M403.991,278.491H108.015c-4.512,0-8.17-3.657-8.17-8.17c0-4.513,3.658-8.17,8.17-8.17h295.976
	c4.512,0,8.17,3.657,8.17,8.17C412.161,274.834,408.503,278.491,403.991,278.491z"/>
<rect x="173.38" y="36.243" style="fill:#FEC99F;" width="165.256" height="84.36"/>
<g>
	<path style="fill:#E42105;" d="M360.416,128.77H151.589c-4.512,0-8.17-3.657-8.17-8.17s3.658-8.17,8.17-8.17h208.827
		c4.512,0,8.17,3.657,8.17,8.17S364.929,128.77,360.416,128.77z"/>
	<path style="fill:#E42105;" d="M255.997,0c-4.512,0-8.17,3.657-8.17,8.17v325.2h16.34V8.17C264.167,3.657,260.509,0,255.997,0z"/>
</g>
<polygon style="fill:#FF7039;" points="151.577,330.366 182.833,451.732 266.89,451.732 255.997,303.637 "/>
<polygon style="fill:#E42105;" points="360.416,330.366 255.997,303.637 255.997,451.732 329.159,451.732 "/>
<path style="fill:#5BACF5;" d="M503.827,430.523c-16.955,0-31.964-8.278-41.316-20.934c-9.316,12.656-24.361,20.934-41.28,20.934
	c-16.955,0-31.965-8.278-41.316-20.934c-9.352,12.656-24.362,20.934-41.316,20.934c-16.959,0-31.925-8.278-41.28-20.934
	c-9.352,12.656-24.362,20.934-41.316,20.934c-16.959,0-31.965-8.278-41.281-20.934c-9.391,12.656-24.361,20.934-41.316,20.934
	c-16.958,0-31.964-8.278-41.28-20.934c-9.352,12.656-24.402,20.934-41.357,20.934c-16.919,0-31.924-8.278-41.28-20.934
	c-9.352,12.656-24.357,20.934-41.316,20.934v49.021l247.827,16.115l247.83-16.115V430.523z"/>
<path style="fill:#4C7FE1;" d="M462.51,458.61c-9.316,12.656-24.361,20.934-41.28,20.934c-16.955,0-31.965-8.278-41.316-20.934
	c-9.352,12.656-24.362,20.934-41.316,20.934c-16.959,0-31.925-8.278-41.28-20.934c-9.353,12.656-24.362,20.934-41.316,20.934
	c-16.959,0-31.965-8.278-41.281-20.934c-9.391,12.656-24.361,20.934-41.316,20.934c-16.958,0-31.964-8.278-41.28-20.934
	c-9.352,12.656-24.402,20.934-41.357,20.934c-16.919,0-31.924-8.278-41.28-20.934c-9.352,12.656-24.357,20.934-41.316,20.934V512
	h495.66v-32.455C486.872,479.545,471.862,471.267,462.51,458.61z"/>
<g>
</g>
<g>
</g>
<g>
</g>
<g>
</g>
<g>
</g>
<g>
</g>
<g>
</g>
<g>
</g>
<g>
</g>
<g>
</g>
<g>
</g>
<g>
</g>
<g>
</g>
<g>
</g>
<g>
</g>
</svg>
