<?xml version="1.0" encoding="iso-8859-1"?>
<!-- Generator: Adobe Illustrator 19.0.0, SVG Export Plug-In . SVG Version: 6.00 Build 0)  -->
<svg version="1.1" id="Layer_1" xmlns="http://www.w3.org/2000/svg" xmlns:xlink="http://www.w3.org/1999/xlink" x="0px" y="0px"
	 viewBox="0 0 512 512" style="enable-background:new 0 0 512 512;" xml:space="preserve">
<path style="fill:#FF7039;" d="M330.017,28.22c-2.243-9.009-11.674-16.379-20.957-16.379H202.939
	c-9.284,0-18.714,7.371-20.957,16.379l-12.73,51.137L256,113.115l86.749-33.758L330.017,28.22z"/>
<g>
	<path style="fill:#FFB367;" d="M299.556,54.039h-87.111c-4.662,0-8.44-3.779-8.44-8.44s3.778-8.44,8.44-8.44h87.111
		c4.662,0,8.44,3.779,8.44,8.44S304.217,54.039,299.556,54.039z"/>
	<path style="fill:#FFB367;" d="M11.253,198.513c-4.661,0-8.44,3.779-8.44,8.44s3.779,8.44,8.44,8.44h50.952v-16.879H11.253z"/>
	<path style="fill:#FFB367;" d="M500.747,198.513h-50.952v16.879h50.952c4.661,0,8.44-3.779,8.44-8.44
		S505.408,198.513,500.747,198.513z"/>
</g>
<g>
	<rect x="11.253" y="407.605" style="fill:#0E0A57;" width="88.795" height="92.554"/>
	<rect x="411.952" y="407.605" style="fill:#0E0A57;" width="88.795" height="92.554"/>
</g>
<path style="fill:#FFD117;" d="M512,307.968c0-6.189-2.712-15.641-6.031-20.863l-22.551-35.514l-34.726-139.478
	c-4.49-18.016-23.349-32.757-41.916-32.757H105.224c-18.567,0-37.427,14.741-41.916,32.757L28.582,251.592L6.031,287.105
	C2.712,292.327,0,301.779,0,307.968l57.693,31.508L0,370.983v59.122h139.883L256,396.291l116.117,33.815H512v-59.122l-57.693-31.508
	L512,307.968z"/>
<path style="fill:#FFFFFF;" d="M466.024,251.592l-33.71-135.396c-2.604-10.446-14.776-19.96-25.538-19.96H105.224
	c-10.762,0-22.934,9.514-25.537,19.956L45.976,251.592H466.024z"/>
<g>
	<path style="fill:#FF7039;" d="M71.196,307.968c17.397,0,31.508,14.1,31.508,31.508c0,17.397-14.111,31.508-31.508,31.508H0
		v-63.015H71.196z"/>
	<path style="fill:#FF7039;" d="M512,307.968v63.015h-71.196c-17.397,0-31.508-14.111-31.508-31.508
		c0-17.408,14.111-31.508,31.508-31.508H512z"/>
</g>
<polygon style="fill:#4C7FE1;" points="349.612,373.785 372.117,430.105 139.883,430.105 162.388,373.785 "/>
<g>
</g>
<g>
</g>
<g>
</g>
<g>
</g>
<g>
</g>
<g>
</g>
<g>
</g>
<g>
</g>
<g>
</g>
<g>
</g>
<g>
</g>
<g>
</g>
<g>
</g>
<g>
</g>
<g>
</g>
</svg>
