<?xml version="1.0" encoding="iso-8859-1"?>
<!-- Generator: Adobe Illustrator 19.0.0, SVG Export Plug-In . SVG Version: 6.00 Build 0)  -->
<svg version="1.1" id="Layer_1" xmlns="http://www.w3.org/2000/svg" xmlns:xlink="http://www.w3.org/1999/xlink" x="0px" y="0px"
	 viewBox="0 0 511.999 511.999" style="enable-background:new 0 0 511.999 511.999;" xml:space="preserve">
<g>
	<rect x="106.734" y="460.666" style="fill:#E42105;" width="298.528" height="16.648"/>
	<rect x="73.438" y="495.349" style="fill:#E42105;" width="365.119" height="16.648"/>
</g>
<g>
	<path style="fill:#961300;" d="M154.878,410.467l-87.321,87.322c-3.251,3.252-3.251,8.521,0,11.772
		c1.625,1.625,3.756,2.437,5.886,2.437c2.13,0,4.261-0.812,5.886-2.437l87.321-87.322L154.878,410.467z"/>
	<path style="fill:#961300;" d="M444.442,497.789l-87.322-87.322l-11.771,11.772l87.322,87.322c1.625,1.625,3.756,2.437,5.886,2.437
		c2.13,0,4.261-0.812,5.886-2.437C447.692,506.311,447.692,501.041,444.442,497.789z"/>
</g>
<path style="fill:#353185;" d="M84.541,340.451v75.744c0,12.208,9.989,22.197,22.197,22.197h298.522
	c12.208,0,22.197-9.989,22.197-22.197v-75.744H84.541z"/>
<rect x="218.13" y="340.447" style="fill:#0E0A57;" width="75.747" height="64.649"/>
<path style="fill:#353185;" d="M317.041,47.192H183.859c-4.597,0-8.324-3.727-8.324-8.324s3.727-8.324,8.324-8.324h133.182
	c4.598,0,8.324,3.727,8.324,8.324S321.639,47.192,317.041,47.192z"/>
<path style="fill:#E42105;" d="M438.556,43.726C438.556,19.677,418.879,0,394.829,0h-277.66C93.119,0,73.443,19.677,73.443,43.726
	v34.009l33.296,86.071l-33.296,86.071v101.671h365.113V249.878l-33.296-86.071l33.296-86.071L438.556,43.726L438.556,43.726z"/>
<g>
	<circle style="fill:#FFD117;" cx="123.382" cy="301.602" r="16.648"/>
	<circle style="fill:#FFD117;" cx="388.614" cy="301.602" r="16.648"/>
</g>
<rect x="73.438" y="77.734" style="fill:#3D51CC;" width="174.236" height="172.138"/>
<rect x="264.322" y="77.734" style="fill:#353185;" width="174.236" height="172.138"/>
<g>
</g>
<g>
</g>
<g>
</g>
<g>
</g>
<g>
</g>
<g>
</g>
<g>
</g>
<g>
</g>
<g>
</g>
<g>
</g>
<g>
</g>
<g>
</g>
<g>
</g>
<g>
</g>
<g>
</g>
</svg>
