<?xml version="1.0" encoding="iso-8859-1"?>
<!-- Generator: Adobe Illustrator 19.0.0, SVG Export Plug-In . SVG Version: 6.00 Build 0)  -->
<svg version="1.1" id="Layer_1" xmlns="http://www.w3.org/2000/svg" xmlns:xlink="http://www.w3.org/1999/xlink" x="0px" y="0px"
	 viewBox="0 0 512 512" style="enable-background:new 0 0 512 512;" xml:space="preserve">
<g>
	<path style="fill:#353185;" d="M434.69,245.718c-4.513,0-8.17-3.658-8.17-8.17v-55.427c0-3.304-2.689-5.991-5.991-5.991H91.472
		c-3.303,0-5.991,2.687-5.991,5.991v55.427c0,4.512-3.657,8.17-8.17,8.17s-8.17-3.658-8.17-8.17v-55.427
		c0-12.314,10.018-22.332,22.332-22.332h329.057c12.314,0,22.332,10.018,22.332,22.332v55.427
		C442.86,242.059,439.203,245.718,434.69,245.718z"/>
	
		<rect x="220.077" y="4.001" transform="matrix(-0.919 0.3942 -0.3942 -0.919 459.8276 16.2358)" style="fill:#353185;" width="16.339" height="102.692"/>
	
		<rect x="234.704" y="47.177" transform="matrix(-0.3941 0.9191 -0.9191 -0.3941 449.6499 -185.7439)" style="fill:#353185;" width="102.697" height="16.34"/>
</g>
<g>
	<rect x="142.173" y="461.617" style="fill:#E42105;" width="227.644" height="16.34"/>
	<rect x="109.492" y="495.66" style="fill:#E42105;" width="293.017" height="16.34"/>
</g>
<g>
	<path style="fill:#961300;" d="M189.427,412.343l-85.709,85.71c-3.191,3.192-3.191,8.364,0,11.555
		c1.595,1.595,3.686,2.392,5.777,2.392s4.182-0.797,5.777-2.392l85.709-85.71L189.427,412.343z"/>
	<path style="fill:#961300;" d="M408.283,498.052l-85.71-85.71l-11.554,11.555l85.71,85.71c1.595,1.595,3.686,2.392,5.777,2.392
		s4.182-0.797,5.777-2.392C411.474,506.416,411.474,501.244,408.283,498.052z"/>
</g>
<path style="fill:#4C7FE1;" d="M359.586,91.658H152.414c-23.605,0-42.919,19.313-42.919,42.919v303.892h293.011V134.576
	C402.505,110.971,383.192,91.658,359.586,91.658z"/>
<g>
	<rect x="204.255" y="167.958" style="fill:#FFFFFF;" width="103.489" height="168.96"/>
	<rect x="125.832" y="167.958" style="fill:#FFFFFF;" width="62.079" height="168.96"/>
</g>
<rect x="324.085" y="167.958" style="fill:#B8DDFF;" width="62.079" height="168.96"/>
<path style="fill:#0E0A57;" d="M338.973,16.34H175.338c-4.513,0-8.17-3.658-8.17-8.17S170.825,0,175.338,0h163.635
	c4.513,0,8.17,3.658,8.17,8.17S343.487,16.34,338.973,16.34z"/>
<circle style="fill:#FFD117;" cx="256" cy="387.693" r="16.34"/>
<path style="fill:#5BACF5;" d="M315.915,137.979h-119.83c-4.513,0-8.17-3.658-8.17-8.17c0-4.512,3.657-8.17,8.17-8.17h119.83
	c4.513,0,8.17,3.658,8.17,8.17C324.085,134.32,320.428,137.979,315.915,137.979z"/>
<g>
</g>
<g>
</g>
<g>
</g>
<g>
</g>
<g>
</g>
<g>
</g>
<g>
</g>
<g>
</g>
<g>
</g>
<g>
</g>
<g>
</g>
<g>
</g>
<g>
</g>
<g>
</g>
<g>
</g>
</svg>
