<?xml version="1.0" encoding="iso-8859-1"?>
<!-- Generator: Adobe Illustrator 19.0.0, SVG Export Plug-In . SVG Version: 6.00 Build 0)  -->
<svg version="1.1" id="Layer_1" xmlns="http://www.w3.org/2000/svg" xmlns:xlink="http://www.w3.org/1999/xlink" x="0px" y="0px"
	 viewBox="0 0 512 512" style="enable-background:new 0 0 512 512;" xml:space="preserve">
<g>
	<rect x="51.909" y="432.139" style="fill:#0E0A57;" width="72.22" height="79.861"/>
	<rect x="387.871" y="432.139" style="fill:#0E0A57;" width="72.22" height="79.861"/>
</g>
<rect x="80.041" style="fill:#E42105;" width="351.918" height="325.812"/>
<g>
	<path style="fill:#961300;" d="M146.635,325.812v106.327L40.656,409.634v-44.437c0-21.662,17.723-39.385,39.385-39.385H146.635z"/>
	<path style="fill:#961300;" d="M471.344,365.197v44.437l-105.978,22.505V325.812h66.594
		C453.621,325.812,471.344,343.535,471.344,365.197z"/>
</g>
<g>
	<path style="fill:#4C7FE1;" d="M465.72,123.084h-89.106v16.879h55.346v39.385h-55.346v16.879h89.106c4.661,0,8.44-3.779,8.44-8.44
		v-56.264C474.159,126.862,470.381,123.084,465.72,123.084z"/>
	<path style="fill:#4C7FE1;" d="M46.28,123.084h89.106v16.879H80.041v39.385h55.346v16.879H46.28c-4.661,0-8.44-3.779-8.44-8.44
		v-56.264C37.841,126.862,41.619,123.084,46.28,123.084z"/>
</g>
<rect x="124.129" y="86.511" style="fill:#5BACF5;" width="263.742" height="345.628"/>
<polygon style="fill:#3D51CC;" points="471.344,409.634 471.344,454.645 460.091,454.645 387.871,454.645 124.129,454.645 
	51.909,454.645 40.656,454.645 40.656,409.634 124.129,409.634 387.871,409.634 "/>
<rect x="141.008" y="103.39" style="fill:#FFFFFF;" width="106.552" height="73.143"/>
<rect x="264.44" y="103.39" style="fill:#B8DDFF;" width="106.552" height="73.143"/>
<g>
	<path style="fill:#4C7FE1;" d="M314.722,235.22H197.278c-21.662,0-39.385,17.723-39.385,39.385h196.215
		C354.107,252.943,336.384,235.22,314.722,235.22z"/>
	<path style="fill:#4C7FE1;" d="M345.669,316.802H166.331c-4.661,0-8.44-3.779-8.44-8.44c0-4.661,3.779-8.44,8.44-8.44h179.336
		c4.661,0,8.44,3.779,8.44,8.44C354.107,313.023,350.33,316.802,345.669,316.802z"/>
	<path style="fill:#4C7FE1;" d="M345.669,350.56H166.331c-4.661,0-8.44-3.779-8.44-8.44s3.779-8.44,8.44-8.44h179.336
		c4.661,0,8.44,3.779,8.44,8.44S350.33,350.56,345.669,350.56z"/>
	<path style="fill:#4C7FE1;" d="M345.669,384.318H166.331c-4.661,0-8.44-3.779-8.44-8.44s3.779-8.44,8.44-8.44h179.336
		c4.661,0,8.44,3.779,8.44,8.44S350.33,384.318,345.669,384.318z"/>
</g>
<g>
</g>
<g>
</g>
<g>
</g>
<g>
</g>
<g>
</g>
<g>
</g>
<g>
</g>
<g>
</g>
<g>
</g>
<g>
</g>
<g>
</g>
<g>
</g>
<g>
</g>
<g>
</g>
<g>
</g>
</svg>
