<?xml version="1.0" encoding="iso-8859-1"?>
<!-- Generator: Adobe Illustrator 19.0.0, SVG Export Plug-In . SVG Version: 6.00 Build 0)  -->
<svg version="1.1" id="Layer_1" xmlns="http://www.w3.org/2000/svg" xmlns:xlink="http://www.w3.org/1999/xlink" x="0px" y="0px"
	 viewBox="0 0 460 460" style="enable-background:new 0 0 460 460;" xml:space="preserve">
<g id="XMLID_1_">
	<path id="XMLID_1861_" style="fill:#756F64;" d="M355.042,410H340h-10h-30l7.236-14.472c1.694-3.388,5.156-5.528,8.944-5.528
		c2.662,0,4.472-2.702,3.458-5.164L276.471,280H260v-40h80v40v31.989c0,18.583,2.59,37.076,7.695,54.945l10.943,38.299
		C359.32,407.622,357.527,410,355.042,410z"/>
	<path id="XMLID_1860_" style="fill:#756F64;" d="M210,240v40l-29.106,126.124c-0.524,2.269-2.544,3.876-4.872,3.876H150h-20
		l7.236-14.472c1.694-3.388,5.157-5.528,8.944-5.528c2.11,0,3.82-1.71,3.82-3.82V280v-40H210z"/>
	<path id="XMLID_2099_" style="fill:#EADCB9;" d="M460,220L460,220l-13.416,26.833c-5.967,11.935-15.596,21.284-27.127,26.973
		l-3.425,23.974c-3.976,27.834-2.039,56.194,5.685,83.229l6.921,24.224c0.683,2.389-1.111,4.767-3.596,4.767H410h-10h-30
		l7.236-14.472c1.694-3.388,5.156-5.528,8.944-5.528c2.662,0,4.472-2.702,3.458-5.164L346.471,280H250h-10l-29.106,126.124
		c-0.524,2.269-2.544,3.876-4.872,3.876H180h-20l7.236-14.472c1.694-3.388,5.156-5.528,8.944-5.528c2.11,0,3.82-1.71,3.82-3.82
		V279.321c-21.111-2.849-40.196-14.615-52.188-32.603l-34.843-52.265c-1.855-2.782-4.977-4.453-8.321-4.453H10
		c-5.523,0-10-4.477-10-10v-6.459c0-8.178,4.979-15.532,12.572-18.57l37.123-14.849c1.231-0.492,2.038-1.685,2.038-3.011
		c17.923-29.872,48.115-50.313,82.507-55.86l61.042-9.846c3.837-0.619,6.882,3.185,5.439,6.793l-4.858,12.145
		c-2.187,5.466,0.799,11.629,6.444,13.302l219.342,64.99C444.395,175.376,460,196.275,460,220z"/>
	<path id="XMLID_1730_" style="fill:#756F64;" d="M460,220v145c0,4.805-6.117,6.844-9,3l0,0c-13.631-18.175-21-40.281-21-63V180
		L460,220z"/>
	<path id="XMLID_2098_" style="fill:#66625A;" d="M460,336.046V365c0,4.805-6.117,6.844-9,3l0,0
		c-11.391-15.189-18.39-33.125-20.388-51.868c4.464,8.106,10.285,15.811,17.388,22.914l0,0C451.844,342.89,460,340.851,460,336.046z
		"/>
	<path id="XMLID_2415_" style="fill:#BCB4A0;" d="M460,220L460,220l-13.416,26.833c-5.967,11.935-15.596,21.284-27.127,26.973
		l-3.425,23.974c-3.976,27.834-2.039,56.194,5.685,83.229l6.921,24.224c0.683,2.389-1.111,4.767-3.596,4.767H410h-10h-30
		l7.236-14.472c1.694-3.388,5.156-5.528,8.944-5.528c2.662,0,4.472-2.702,3.458-5.164L346.471,280h-0.137l-11.254-27.561
		C332.008,244.916,324.69,240,316.564,240c-10.693,0-21.147,3.158-30.052,9.078L240,280l-29.106,126.124
		c-0.524,2.269-2.544,3.876-4.872,3.876H180h-20l7.236-14.472c1.694-3.388,5.156-5.528,8.944-5.528c2.11,0,3.82-1.71,3.82-3.82
		V279.321c-21.111-2.849-40.196-14.615-52.188-32.603L117.5,231.25l0,0l0.094,0.141c13.483-11.307,24.57-25.541,32.223-41.94
		l6.85,20.549C175.076,210,190,195.076,190,176.667v-8.333c0-4.602-3.731-8.333-8.333-8.333H146.56H140H5.282
		c1.983-2.157,4.454-3.894,7.29-5.029l37.123-14.849c1.231-0.492,2.038-1.685,2.038-3.011c17.923-29.872,48.115-50.313,82.507-55.86
		l61.042-9.846c3.837-0.619,6.882,3.185,5.439,6.793l-4.858,12.145c-2.187,5.466,0.799,11.629,6.444,13.302l219.342,64.99
		C444.395,175.376,460,196.275,460,220z"/>
	<path id="XMLID_1208_" style="fill:#756F64;" d="M140,90h-30l8.787-35.149C119.5,52,122.061,50,125,50s5.5,2,6.213,4.851L140,90z"
		/>
	<path id="XMLID_1205_" style="fill:#999485;" d="M460,220L460,220l-13.416,26.833c-5.981,11.961-15.643,21.316-27.209,27.001
		v-2.584L430,250l0,0c0-23.725-15.605-44.623-38.352-51.363l-219.342-64.99c-5.645-1.673-8.63-7.836-6.444-13.302l4.858-12.145
		c1.443-3.609-1.602-7.412-5.439-6.793l-61.042,9.846c-17.584,2.836-34.064,9.573-48.373,19.466
		c18.236-26.382,46.496-44.324,78.373-49.466l8.281-1.336l6.206-24.822c0.652-2.608,2.768-4.695,5.434-5.04
		c3.279-0.424,6.273,1.677,7.052,4.796l5.299,21.196l28.77-4.64c3.837-0.619,6.882,3.185,5.439,6.793l-4.858,12.145
		c-2.187,5.466,0.799,11.629,6.444,13.302l219.342,64.99C444.395,175.376,460,196.275,460,220z"/>
	<path id="XMLID_1717_" style="fill:#756F64;" d="M162.5,90h-15l4.394-17.575C152.25,71,153.531,70,155,70s2.75,1,3.106,2.425
		L162.5,90z"/>
	<path id="XMLID_2165_" style="fill:#EADCB9;" d="M190,168.333v8.333c0,18.41-14.924,33.334-33.333,33.334l-6.85-20.549
		c-7.653,16.399-18.74,30.633-32.223,41.94l-24.625-36.938c-1.855-2.782-4.977-4.453-8.32-4.453H10c-5.523,0-10-4.477-10-10v-6.459
		c0-5.124,1.955-9.923,5.282-13.541H140h6.56h35.107C186.269,160,190,163.731,190,168.333z"/>
	<path id="XMLID_2414_" style="fill:#EADCB9;" d="M335.079,252.439c-3.072-7.523-10.39-12.439-18.516-12.439
		c-10.693,0-21.147,3.158-30.052,9.078L240,280h106.333L335.079,252.439z"/>
	<path id="XMLID_1316_" style="fill:#49463E;" d="M20,152v8c0,5.523-4.477,10-10,10H0.328c1.206-6.704,5.768-12.438,12.244-15.029
		L20,152z"/>
	<path id="XMLID_1193_" style="fill:#49463E;" d="M100,130v10H90C90,134.477,94.477,130,100,130z"/>
	<path id="XMLID_1194_" style="fill:#66625A;" d="M20,152v8H5.287c1.981-2.157,4.449-3.895,7.285-5.029L20,152z"/>
</g>
<g>
</g>
<g>
</g>
<g>
</g>
<g>
</g>
<g>
</g>
<g>
</g>
<g>
</g>
<g>
</g>
<g>
</g>
<g>
</g>
<g>
</g>
<g>
</g>
<g>
</g>
<g>
</g>
<g>
</g>
</svg>
